<?xml version="1.0" standalone="no"?>
<!DOCTYPE svg PUBLIC "-//W3C//DTD SVG 20010904//EN"
 "http://www.w3.org/TR/2001/REC-SVG-20010904/DTD/svg10.dtd">
<svg version="1.0" xmlns="http://www.w3.org/2000/svg"
 width="512.000000pt" height="512.000000pt" viewBox="0 0 512.000000 512.000000"
 preserveAspectRatio="xMidYMid meet">
<metadata>
Created by potrace 1.14, written by Peter Selinger 2001-2017
</metadata>
<g transform="translate(0.000000,512.000000) scale(0.100000,-0.100000)"
fill="#000000" stroke="none">
<path d="M4155 3860 c-16 -4 -59 -8 -95 -9 -37 0 -70 -5 -75 -10 -6 -5 -41
-12 -80 -15 -133 -9 -330 -31 -340 -37 -5 -4 -48 -7 -95 -8 -47 -1 -89 -6 -94
-12 -6 -5 -32 -9 -58 -9 l-48 0 -59 -122 c-66 -138 -85 -163 -130 -179 -19 -7
-28 -15 -24 -22 4 -7 0 -7 -9 1 -13 10 -18 10 -24 1 -5 -8 -3 -10 7 -5 8 4 1
-3 -14 -17 -28 -24 -62 -33 -50 -13 5 7 2 7 -8 0 -8 -7 -30 -14 -49 -17 -48
-7 -77 -14 -96 -25 -15 -8 -15 -10 0 -15 10 -4 15 -3 12 2 -3 4 27 11 68 14
40 3 90 10 112 15 21 6 66 16 99 22 33 7 87 18 121 26 33 8 74 14 92 14 17 0
34 5 37 10 3 6 21 10 39 10 18 0 36 3 40 7 7 7 96 27 176 39 19 3 44 9 55 14
28 13 168 40 205 40 18 0 29 4 25 10 -4 6 13 10 44 10 27 0 53 5 56 10 3 6 18
10 33 10 21 0 28 5 28 19 0 15 -3 17 -13 9 -7 -6 -22 -8 -32 -5 -11 3 -21 1
-23 -4 -2 -4 -17 -10 -35 -14 -18 -3 -44 -10 -58 -15 -15 -6 -47 -10 -73 -10
-34 0 -43 -3 -32 -10 8 -5 10 -10 4 -10 -6 0 -17 7 -24 15 -12 15 -11 16 12
19 6 0 12 7 14 14 1 7 0 8 -3 2 -3 -7 -10 -7 -21 2 -9 7 -13 8 -9 2 8 -14 -16
-37 -28 -26 -5 4 -5 1 -1 -6 4 -7 12 -10 17 -7 5 4 9 2 9 -4 0 -6 -24 -9 -60
-8 -33 2 -65 -1 -70 -5 -6 -4 -5 -2 1 5 5 6 24 12 42 12 18 0 32 5 32 10 0 6
-4 8 -10 6 -5 -2 -28 -5 -50 -7 -22 -2 -47 -7 -55 -10 -23 -9 -129 -11 -124
-2 3 4 0 8 -7 8 -6 0 0 11 15 25 14 13 26 30 26 37 0 10 -2 10 -8 1 -5 -8 -13
-7 -30 6 -21 16 -22 17 -3 17 11 0 17 -5 14 -10 -3 -5 -1 -6 6 -2 8 6 9 12 2
20 -6 7 -7 17 -3 21 4 5 2 5 -5 1 -6 -3 -14 -3 -16 1 -3 5 -34 9 -68 11 -90 4
-119 31 -42 39 20 2 44 9 52 16 12 10 13 9 6 -2 -5 -10 -4 -12 3 -7 7 4 45 7
86 7 40 0 93 6 117 12 24 7 53 12 64 12 11 0 22 2 25 6 3 4 34 8 70 10 36 1
71 7 79 13 11 8 13 8 8 0 -8 -13 102 -12 124 1 8 6 10 4 4 -5 -6 -10 -4 -11 6
-4 8 4 25 9 39 10 48 4 125 6 135 4 24 -6 45 1 45 15 0 8 5 15 10 15 6 0 10 5
10 10 0 11 -31 11 -75 0z m-733 -202 c-6 -6 -12 -5 -17 3 -5 8 -4 10 3 5 8 -5
12 1 13 16 1 18 2 19 6 4 3 -10 0 -23 -5 -28z m39 25 c13 -16 12 -17 -3 -4
-17 13 -22 21 -14 21 2 0 10 -8 17 -17z"/>
<path d="M4144 3801 c3 -4 1 -13 -4 -20 -4 -8 -4 -27 0 -43 7 -24 5 -31 -15
-44 -13 -9 -29 -13 -35 -9 -5 3 -13 -1 -16 -9 -3 -9 -11 -13 -17 -9 -5 3 -7 1
-4 -4 4 -6 20 -16 36 -21 30 -11 34 -7 64 68 5 14 16 38 24 53 8 16 13 30 10
33 -8 8 -48 13 -43 5z"/>
<path d="M4077 3629 c7 -7 15 -10 18 -7 3 3 -2 9 -12 12 -14 6 -15 5 -6 -5z"/>
<path d="M3483 3592 c0 -10 9 -18 18 -18 14 0 15 4 8 18 -5 10 -14 18 -19 18
-5 0 -8 -8 -7 -18z"/>
<path d="M2966 3428 c3 -5 10 -6 15 -3 13 9 11 12 -6 12 -8 0 -12 -4 -9 -9z"/>
<path d="M2991 3417 c-13 -21 -12 -21 5 -5 10 10 16 20 13 22 -3 3 -11 -5 -18
-17z"/>
<path d="M3942 3427 c-6 -7 -7 -18 -3 -26 7 -11 10 -9 15 7 4 11 15 23 24 25
13 4 12 5 -4 6 -12 0 -26 -5 -32 -12z"/>
<path d="M3905 3410 c3 -5 8 -10 11 -10 2 0 4 5 4 10 0 6 -5 10 -11 10 -5 0
-7 -4 -4 -10z"/>
<path d="M2738 3343 c7 -3 16 -2 19 1 4 3 -2 6 -13 5 -11 0 -14 -3 -6 -6z"/>
<path d="M2660 3328 c0 -11 22 -10 40 2 11 8 9 9 -12 8 -16 -1 -28 -6 -28 -10z"/>
<path d="M2615 3320 l-30 -8 27 -1 c15 0 30 4 33 9 3 6 5 9 3 9 -2 -1 -16 -5
-33 -9z"/>
<path d="M3430 3310 c0 -5 7 -7 15 -4 8 4 15 8 15 10 0 2 -7 4 -15 4 -8 0 -15
-4 -15 -10z"/>
<path d="M3373 3293 c9 -2 23 -2 30 0 6 3 -1 5 -18 5 -16 0 -22 -2 -12 -5z"/>
<path d="M2851 3268 c-1 -25 -21 -52 -21 -29 0 6 -7 11 -15 11 -8 0 -15 -7
-15 -15 0 -9 9 -15 25 -15 21 0 25 -5 25 -29 0 -24 3 -28 20 -24 12 3 17 10
12 17 -4 6 -12 34 -18 61 -8 34 -12 41 -13 23z"/>
<path d="M3305 3280 c-19 -8 -19 -9 3 -9 12 -1 22 4 22 9 0 6 -1 10 -2 9 -2 0
-12 -4 -23 -9z"/>
<path d="M2385 3270 c-16 -7 -17 -9 -3 -9 9 -1 20 4 23 9 7 11 7 11 -20 0z"/>
<path d="M2338 3263 c7 -3 16 -2 19 1 4 3 -2 6 -13 5 -11 0 -14 -3 -6 -6z"/>
<path d="M3220 3256 c0 -9 7 -12 20 -9 11 3 20 9 20 14 0 5 -9 9 -20 9 -11 0
-20 -6 -20 -14z"/>
<path d="M3123 3237 c-17 -7 -35 -16 -40 -20 -4 -5 6 -3 22 3 17 7 48 15 70
20 34 7 36 8 10 8 -16 0 -44 -5 -62 -11z"/>
<path d="M2315 3230 c-4 -6 -2 -17 4 -23 15 -15 25 -2 13 19 -7 12 -11 13 -17
4z"/>
<path d="M2218 3223 c7 -3 16 -2 19 1 4 3 -2 6 -13 5 -11 0 -14 -3 -6 -6z"/>
<path d="M1954 3212 c4 -3 14 -7 22 -8 9 -1 13 0 10 4 -4 3 -14 7 -22 8 -9 1
-13 0 -10 -4z"/>
<path d="M3000 3210 c0 -5 -16 -10 -35 -10 -32 0 -35 -2 -35 -29 0 -17 5 -33
10 -36 15 -9 40 14 34 30 -7 17 26 35 65 35 17 0 31 5 31 10 0 6 -16 10 -35
10 -19 0 -35 -4 -35 -10z"/>
<path d="M1725 3190 c3 -5 12 -7 20 -3 21 7 19 13 -6 13 -11 0 -18 -4 -14 -10z"/>
<path d="M2344 3135 c-3 -19 -4 -41 -1 -49 9 -23 -16 -25 -35 -3 -14 15 -25
18 -50 13 -18 -4 -43 -8 -55 -9 -23 -2 -21 -17 2 -17 8 0 26 -18 40 -39 13
-22 31 -43 38 -48 13 -7 26 -59 28 -105 1 -26 15 -30 15 -5 0 12 6 42 13 67 7
25 17 61 23 81 6 20 9 53 6 73 -3 24 1 37 10 41 11 4 11 8 -2 20 -21 21 -24
19 -32 -20z"/>
<path d="M2420 3160 c0 -5 5 -10 10 -10 6 0 10 5 10 10 0 6 -4 10 -10 10 -5 0
-10 -4 -10 -10z"/>
<path d="M4192 3133 c-23 -8 -40 -18 -38 -21 2 -4 -16 -8 -41 -10 -25 -1 -53
-7 -63 -12 -10 -6 -28 -10 -39 -10 -12 0 -21 -4 -21 -9 0 -5 -19 -11 -42 -15
-43 -7 -96 -22 -133 -37 -20 -9 -88 -26 -137 -36 -16 -3 -28 -9 -28 -13 0 -4
-15 -10 -32 -13 -57 -8 -138 -31 -138 -39 0 -5 -9 -8 -21 -8 -23 0 -115 -26
-141 -41 -10 -5 -30 -9 -46 -9 -15 0 -32 -4 -37 -8 -6 -4 -37 -16 -70 -26 -33
-10 -71 -22 -85 -26 -14 -4 -52 -15 -85 -25 -33 -10 -68 -21 -77 -26 -10 -5
-27 -9 -37 -9 -11 0 -23 -4 -26 -10 -3 -5 -14 -10 -24 -10 -19 0 -108 -25
-146 -40 -26 -11 -125 -39 -150 -42 -18 -3 -20 -12 -23 -82 -3 -78 -14 -106
-44 -106 -7 0 -31 -7 -53 -14 -57 -20 -65 -10 -65 88 0 45 -4 107 -10 137 -5
30 -11 80 -13 111 -2 32 -6 60 -9 63 -3 3 -4 -7 -3 -22 1 -16 -2 -36 -8 -47
-6 -13 -6 -16 2 -12 13 8 10 -21 -3 -43 -5 -8 -5 -12 0 -9 5 4 10 -44 12 -110
2 -65 7 -118 13 -120 15 -6 10 -22 -7 -22 -23 0 -54 38 -54 66 0 13 -4 26 -10
29 -5 3 -10 1 -10 -5 0 -6 -11 -23 -25 -38 -14 -15 -25 -32 -25 -39 0 -7 -3
-13 -8 -13 -4 0 -27 -29 -51 -64 l-43 -65 -407 6 -406 5 40 -41 c38 -40 41
-41 103 -41 59 0 92 -13 92 -36 0 -6 28 -33 67 -64 7 -6 21 -10 33 -10 15 0
20 -7 20 -27 0 -16 3 -44 6 -63 l6 -35 -54 3 c-29 2 -48 -1 -41 -5 8 -6 6 -15
-9 -32 -12 -15 -22 -21 -26 -14 -4 5 -14 13 -22 16 -12 4 -11 6 3 6 22 1 22
32 1 74 -10 19 -16 54 -16 89 1 47 -3 60 -18 68 -30 16 -62 12 -130 -16 -61
-24 -66 -25 -97 -10 -18 9 -33 20 -33 26 0 12 -69 3 -84 -11 -6 -6 3 -23 24
-44 18 -19 31 -38 27 -42 -4 -3 -24 -7 -45 -7 -23 -1 -42 -8 -50 -18 -17 -23
-32 -23 -32 0 0 9 -15 27 -32 39 l-32 23 -31 -29 c-16 -16 -47 -34 -69 -41
-23 -7 -44 -23 -54 -40 -9 -15 -29 -31 -46 -36 -31 -9 -76 -71 -76 -106 0 -22
-39 -68 -57 -68 -7 0 -20 -11 -29 -25 -12 -18 -25 -25 -49 -25 -17 0 -52 -11
-76 -24 -41 -21 -44 -26 -42 -60 2 -29 -3 -39 -22 -52 -22 -14 -32 -15 -69 -4
-25 7 -49 9 -55 5 -16 -9 -13 -42 4 -49 8 -3 15 -12 15 -21 0 -26 -51 -95 -71
-95 -10 0 -27 -9 -37 -21 -16 -16 -27 -19 -56 -14 -40 8 -66 -6 -66 -34 0 -9
-11 -33 -24 -52 -16 -23 -23 -44 -19 -58 3 -12 1 -21 -6 -21 -6 0 -11 5 -11
10 0 6 -9 10 -20 10 -20 0 -20 -5 -18 -536 l3 -537 54 -17 c61 -19 120 -9 128
21 4 14 7 15 39 0 19 -8 36 -23 39 -32 9 -26 58 -43 84 -29 18 9 21 17 15 44
-6 33 8 57 21 36 3 -5 28 -10 54 -10 32 0 53 -5 62 -16 9 -11 28 -15 73 -13
60 3 61 3 78 -32 9 -18 19 -42 22 -51 5 -15 18 -18 81 -18 68 0 77 2 97 25 24
28 63 32 92 10 26 -20 110 -20 126 0 10 12 10 18 0 30 -25 31 19 28 68 -4 49
-31 72 -38 72 -22 0 4 28 11 62 15 35 3 65 11 66 16 2 6 21 10 41 10 21 0 52
5 69 11 26 9 35 8 47 -5 15 -15 76 -36 105 -36 8 0 30 9 48 20 18 11 63 25
100 30 95 14 102 13 102 -10 0 -29 33 -41 108 -38 56 3 67 6 70 22 2 11 0 16
-6 12 -6 -3 -13 -2 -17 4 -4 6 -11 8 -16 5 -5 -4 -9 1 -9 9 0 24 39 31 55 9
13 -17 14 -17 8 4 -5 23 -2 26 49 37 15 3 33 13 41 21 18 17 27 10 27 -21 0
-24 26 -44 55 -44 10 0 30 -11 47 -25 42 -35 102 -35 135 1 19 20 22 29 12 35
-7 4 -17 5 -21 3 -4 -3 -8 -1 -8 5 0 7 -8 7 -25 1 -15 -6 -26 -6 -30 0 -7 11
10 19 35 18 8 0 27 3 43 7 18 5 27 3 27 -4 0 -9 5 -9 21 -1 11 6 41 15 67 20
109 21 184 38 189 44 4 3 16 -2 27 -13 12 -11 37 -22 57 -26 30 -6 40 -3 57
15 22 23 20 45 -4 54 -23 9 -16 35 12 42 14 4 41 4 61 1 21 -4 50 0 71 8 19 8
46 15 60 15 30 0 112 38 112 51 0 6 17 25 37 44 l37 34 -33 30 c-30 28 -39 31
-98 31 -60 0 -64 1 -58 20 8 25 4 25 -37 0 -24 -14 -51 -20 -95 -20 l-63 0 0
75 c0 71 1 75 25 81 21 5 25 12 25 41 l0 34 -47 -3 -48 -3 -2 -109 c-1 -59 -3
-109 -5 -111 -3 -3 -134 -8 -165 -6 -9 1 -13 23 -14 74 l0 72 -26 -51 c-14
-28 -41 -61 -61 -75 -35 -23 -39 -24 -201 -21 -94 2 -171 8 -178 14 -9 7 -13
7 -13 -1 0 -7 -21 -11 -55 -11 l-55 0 0 -35 0 -35 -90 0 c-57 0 -90 4 -90 11
0 6 -6 17 -14 25 -8 7 -16 19 -18 26 -8 23 -28 -4 -28 -37 l0 -34 -82 5 c-46
3 -84 6 -84 7 -5 5 -6 50 -5 135 1 90 2 92 25 92 16 0 26 7 30 23 11 41 7 47
-29 47 l-35 0 0 -115 0 -115 -69 0 c-38 0 -77 -3 -86 -6 -11 -5 -18 0 -22 15
-5 20 -11 21 -132 21 l-127 0 -18 31 c-10 18 -27 40 -37 50 -28 28 -28 89 2
119 13 14 31 35 39 47 12 19 25 23 75 24 98 2 105 5 105 50 l0 39 573 0 572 0
16 -22 17 -21 6 21 c7 21 13 22 159 23 142 0 164 6 85 23 -16 4 -28 13 -28 22
0 8 -6 21 -13 29 -7 7 -25 26 -38 42 -15 18 -46 37 -76 47 -45 15 -50 19 -45
41 2 15 0 25 -7 25 -7 0 -9 -5 -5 -12 5 -7 3 -8 -7 -2 -8 5 -22 7 -32 6 -24
-4 -47 15 -47 39 0 11 -18 39 -40 63 -50 54 -52 69 -3 26 l36 -32 186 4 c114
3 195 9 208 16 12 7 42 12 68 12 25 0 60 8 78 17 43 23 41 23 212 33 295 18
404 40 374 77 -7 7 -10 15 -8 17 17 14 144 24 299 25 277 1 524 21 680 53 55
11 127 23 197 33 51 7 84 35 42 35 -23 0 -36 25 -21 43 9 12 17 49 28 135 5
31 10 42 23 42 25 0 32 10 20 31 -5 11 -10 55 -10 99 0 99 -22 186 -52 211
-31 26 -108 26 -132 -1 -14 -15 -26 -18 -58 -14 -51 6 -61 14 -19 14 18 0 32
5 32 10 0 6 11 10 25 10 20 0 25 5 25 25 0 21 -5 25 -29 25 -25 0 -29 4 -34
33 -2 17 0 38 5 44 6 7 7 24 4 38 -6 24 -9 25 -91 25 -46 0 -87 -4 -90 -10
-14 -22 -25 -8 -25 31 0 39 2 41 25 37 19 -4 25 -1 25 12 0 24 -10 31 -31 19
-16 -8 -19 -6 -19 16 0 21 -5 25 -28 25 -15 0 -34 6 -41 13 -10 9 -15 9 -18 0
-6 -16 -33 -5 -33 13 0 8 -3 14 -8 14 -4 0 -12 10 -17 23 -8 18 -19 23 -57 25
-51 3 -56 -2 -33 -32 15 -19 45 -16 45 6 0 6 14 -1 30 -17 33 -32 27 -45 -22
-45 -16 0 -28 -5 -28 -11 0 -6 -7 -3 -16 5 -8 9 -26 16 -40 16 -15 0 -24 6
-24 15 0 22 -21 18 -27 -5 -4 -15 -14 -20 -38 -20 -23 0 -35 -6 -43 -22 l-11
-23 0 22 c-1 12 -6 23 -12 25 -7 2 -13 35 -14 81 -2 42 -6 81 -10 87 -3 6 2
13 11 17 10 4 19 2 22 -5 2 -7 7 -12 12 -12 5 0 20 -4 35 -10 21 -8 24 -13 16
-29 -8 -14 -7 -20 3 -24 17 -7 26 1 26 23 0 13 14 21 47 30 54 13 63 22 63 67
0 50 7 60 40 55 22 -3 30 -10 30 -24 0 -13 6 -18 17 -16 12 2 18 15 20 43 2
42 -8 55 -44 55 -13 0 -23 5 -23 10 0 14 -26 12 -59 -4 -15 -8 -39 -17 -52
-19 -13 -2 -37 -10 -54 -16 l-30 -13 25 -11 c28 -11 60 -10 75 4 17 17 25 9
25 -26 0 -41 -2 -42 -96 -50 -89 -7 -104 -1 -104 36 0 22 -5 29 -20 29 -11 0
-20 -4 -20 -10 0 -5 -11 -10 -25 -10 -20 0 -25 -5 -25 -25 0 -21 -5 -25 -29
-25 -30 0 -73 -41 -51 -48 5 -2 10 -15 10 -28 0 -13 5 -24 10 -24 6 0 10 7 10
15 0 10 10 15 29 15 24 0 29 -5 35 -31 3 -17 6 -55 6 -83 0 -44 -3 -53 -22
-61 -18 -8 -23 -18 -23 -44 0 -19 -6 -36 -12 -38 -8 -3 -13 4 -13 16 0 25 -26
28 -33 4 -2 -10 -8 -26 -12 -35 -5 -13 -2 -18 9 -18 14 0 15 -4 6 -20 -6 -11
-20 -25 -31 -31 -12 -6 -19 -7 -15 -1 10 17 -22 36 -45 26 -17 -8 -22 -21 -25
-62 -6 -75 15 -101 78 -102 27 0 49 5 52 13 5 9 7 9 12 -1 5 -10 9 -9 20 5 12
16 13 16 14 1 0 -9 6 -19 13 -22 6 -3 -81 -4 -194 -3 -220 2 -211 5 -161 -48
12 -13 22 -28 22 -33 0 -5 11 -15 25 -22 20 -10 28 -11 37 -2 15 15 90 16 105
1 8 -8 13 -8 17 0 4 6 15 11 24 10 11 0 12 -3 5 -6 -17 -6 -16 -31 1 -49 19
-18 36 -18 50 2 16 21 44 8 44 -21 0 -20 -6 -24 -41 -27 -66 -6 -97 1 -97 24
0 22 -26 53 -34 40 -2 -4 -1 -14 5 -22 14 -24 11 -60 -6 -60 -8 0 -15 9 -15
21 0 11 -5 30 -11 41 -9 16 -8 23 2 29 13 8 -14 6 -73 -6 -10 -2 -18 1 -18 7
0 18 -93 98 -115 98 -11 0 -26 5 -32 11 -14 14 -90 -22 -130 -62 -17 -16 -43
-60 -58 -97 -15 -37 -31 -76 -36 -87 -4 -11 -10 -33 -13 -50 -3 -16 -3 2 -1
40 5 85 43 171 103 232 l40 40 -75 1 c-42 1 -78 4 -82 7 -7 8 59 64 76 65 6 0
13 4 15 8 10 24 78 62 111 62 31 0 37 4 37 20 0 11 -6 22 -12 24 -7 2 -50 15
-95 30 -45 14 -89 26 -98 26 -8 0 -15 3 -15 8 0 15 -97 35 -170 34 -48 -1 -68
2 -55 7 11 5 23 7 28 4 4 -2 7 2 7 9 0 9 3 9 10 -2 6 -10 10 -11 10 -2 0 6 11
12 25 12 14 0 25 5 25 10 0 6 13 10 29 10 17 0 32 4 35 9 4 5 24 12 46 16 22
4 42 11 46 16 3 5 15 9 28 9 12 0 26 3 29 6 10 10 109 43 130 44 9 0 17 4 17
9 0 5 12 11 28 14 43 9 102 31 102 39 0 5 9 8 20 8 11 0 28 4 38 9 25 14 56
24 65 23 4 -1 7 2 7 6 0 5 17 14 38 20 72 22 87 26 94 27 3 0 10 3 14 8 4 4
18 7 31 7 13 0 23 5 23 12 0 6 3 9 6 6 3 -3 39 4 79 17 41 12 77 20 80 17 3
-3 5 0 5 6 0 7 7 12 15 12 8 0 15 3 15 8 0 4 26 15 58 25 81 26 98 43 107 105
4 29 11 54 16 58 12 7 11 24 -1 24 -5 0 -10 -6 -10 -13 0 -7 -9 -18 -19 -24
-16 -10 -22 -9 -33 5 -11 15 -11 15 3 5 21 -17 33 -5 16 16 -11 14 -10 14 6 2
11 -9 17 -10 18 -2 1 6 2 15 3 21 0 5 10 16 21 24 l20 15 -20 -1 c-11 0 -39
-7 -63 -15z m-185 -108 c0 -8 -4 -12 -9 -9 -5 3 -6 10 -3 15 9 13 12 11 12 -6z
m-57 -31 c0 -8 -19 -13 -24 -6 -3 5 1 9 9 9 8 0 15 -2 15 -3z m-63 -280 c-3
-3 -12 -4 -19 -1 -8 3 -5 6 6 6 11 1 17 -2 13 -5z m183 -209 c0 -8 5 -15 10
-15 6 0 10 -4 10 -9 0 -5 -11 -4 -25 2 -27 13 -34 37 -10 37 8 0 15 -7 15 -15z
m119 -75 c-6 -74 -29 -122 -29 -63 0 17 6 34 13 37 10 5 10 7 0 12 -15 7 -17
50 -3 59 6 3 10 16 10 28 0 14 3 18 8 10 4 -7 5 -44 1 -83z m-175 25 c3 -9 0
-15 -9 -15 -8 0 -15 7 -15 15 0 8 4 15 9 15 5 0 11 -7 15 -15z m-1066 -26 c28
-8 52 -17 52 -21 0 -5 7 -8 16 -8 20 0 116 -31 128 -41 4 -4 -4 -18 -19 -31
-15 -12 -36 -44 -47 -69 -20 -44 -24 -48 -72 -57 -32 -6 -55 -7 -62 -1 -6 5
-54 9 -106 8 -51 -1 -103 3 -113 9 -11 5 -46 16 -78 23 -48 10 -60 10 -67 0
-7 -13 -64 -11 -152 4 -31 6 -38 12 -38 29 0 19 10 26 58 41 31 11 61 23 67
27 5 4 19 8 30 8 12 0 25 3 29 7 12 13 100 43 124 43 12 0 22 5 22 10 0 6 10
10 23 10 13 0 27 4 33 9 24 23 83 23 172 0z m-607 -37 c-6 -11 -17 -26 -23
-34 -7 -7 -26 -31 -42 -53 -17 -22 -34 -43 -39 -46 -5 -3 -7 -15 -5 -25 2 -15
-3 -19 -22 -17 -81 4 -211 5 -216 0 -3 -3 -20 -1 -37 4 -18 5 -117 9 -222 9
-138 1 -185 3 -172 11 10 6 25 8 32 5 8 -3 17 -1 20 5 4 5 37 7 83 3 42 -3
118 -7 167 -9 50 -2 95 -4 100 -5 6 0 56 1 111 3 l102 3 54 57 c30 31 53 57
51 57 -2 0 11 13 29 29 36 32 45 33 29 3z m1788 -4 c-17 -19 -89 -20 -89 -2 0
10 14 14 50 14 40 0 48 -3 39 -12z m-889 -20 c0 -7 -11 -18 -25 -25 -22 -10
-25 -9 -25 6 0 10 3 21 7 24 11 12 43 8 43 -5z m1110 -34 c0 -13 -4 -24 -10
-24 -5 0 -10 -7 -10 -15 0 -10 10 -15 26 -15 22 0 25 2 14 15 -10 13 -9 15 9
15 14 0 21 -6 21 -20 0 -17 -7 -20 -40 -20 -43 0 -46 6 -34 69 7 35 24 32 24
-5z m-440 7 c0 -5 -9 -11 -20 -14 -22 -6 -28 8 -7 16 19 8 27 8 27 -2z m60 -1
c0 -5 -2 -10 -4 -10 -3 0 -8 5 -11 10 -3 6 -1 10 4 10 6 0 11 -4 11 -10z
m-1600 -86 c0 -8 -7 -22 -15 -30 -8 -9 -15 -11 -15 -5 0 6 -18 11 -41 11 -24
0 -38 4 -34 10 3 6 19 10 35 10 16 0 32 5 35 10 10 16 35 12 35 -6z m756 -39
c14 -13 11 -15 -21 -15 -31 0 -34 2 -23 15 17 18 26 18 44 0z m1224 -35 c30
-29 44 -64 15 -38 -37 33 -46 38 -76 38 -48 0 -128 -64 -129 -102 0 -22 -16
-24 -23 -4 -3 8 1 20 9 26 8 7 14 20 14 30 0 16 -8 17 -77 14 -43 -3 -87 -6
-98 -8 -11 -2 -25 1 -32 6 -6 5 -17 8 -25 7 -32 -4 -40 0 -26 16 7 8 19 21 26
30 11 12 44 15 202 15 l189 0 31 -30z m-1475 -10 c11 -5 27 -11 35 -14 8 -3
-13 -3 -47 1 -45 4 -73 1 -107 -12 -25 -10 -46 -22 -46 -26 0 -5 -5 -9 -11 -9
-18 0 -62 -43 -101 -98 -14 -20 -16 -21 -22 -6 -8 21 90 120 128 130 54 13 22
24 -73 24 -73 0 -102 4 -110 14 -11 13 11 14 161 10 95 -3 182 -9 193 -14z
m942 -46 c3 -8 13 -14 23 -14 11 0 22 -4 25 -10 3 -5 22 -10 41 -10 32 0 34
-2 34 -34 0 -22 -6 -36 -16 -40 -35 -14 -50 -5 -69 39 -11 25 -29 48 -40 51
-23 8 -45 29 -45 44 0 15 39 -6 47 -26z m-2130 -1 c-4 -31 -24 -42 -33 -19 -9
22 2 46 21 46 11 0 15 -8 12 -27z m303 -13 c0 -20 -5 -30 -15 -30 -10 0 -15
10 -15 30 0 20 5 30 15 30 10 0 15 -10 15 -30z m970 15 c7 -8 19 -15 26 -15 8
0 14 -4 14 -10 0 -5 7 -10 15 -10 8 0 15 -7 15 -16 0 -9 9 -29 21 -46 12 -16
19 -31 16 -34 -3 -3 -15 10 -28 28 -13 18 -27 35 -31 36 -4 2 -8 10 -8 18 0 8
-11 20 -25 26 -14 6 -25 15 -25 19 0 4 -8 10 -17 12 -15 4 -15 5 -2 6 9 0 22
-6 29 -14z m-1600 -25 c10 -19 10 -20 -9 -8 -11 6 -17 16 -15 20 8 12 12 10
24 -12z m2668 -12 c6 -6 12 -26 12 -44 0 -31 -3 -34 -29 -34 -34 0 -37 3 -46
50 -6 33 -5 35 22 37 15 1 34 -3 41 -9z m742 -19 c7 -12 7 -20 0 -24 -5 -3
-10 -1 -10 4 0 6 -14 11 -31 11 -30 0 -59 -19 -59 -39 0 -6 -4 -11 -10 -11 -5
0 -6 8 -2 18 27 67 87 89 112 41z m-460 -2 c27 -22 50 -86 48 -135 -1 -43 -2
-44 -5 -9 -2 20 -8 37 -13 37 -4 0 -11 11 -14 24 -9 35 -33 56 -64 56 -31 -1
-68 -28 -75 -56 -2 -10 -3 -4 -1 14 6 61 82 103 124 69z m512 -29 c-9 -9 -12
-7 -12 12 0 19 3 21 12 12 9 -9 9 -15 0 -24z m-3525 -4 c-9 -9 -28 6 -21 18 4
6 10 6 17 -1 6 -6 8 -13 4 -17z m2156 3 c47 -32 77 -109 82 -207 2 -47 2 -74
-1 -60 -12 62 -38 151 -46 156 -4 3 -8 14 -8 24 0 10 -9 22 -20 25 -11 3 -20
13 -20 22 0 9 -6 13 -15 9 -8 -3 -15 -1 -15 3 0 10 -12 9 -47 -3 -13 -4 -23
-11 -23 -16 0 -5 -7 -6 -17 -3 -11 4 -14 3 -9 -5 4 -7 1 -19 -7 -26 -11 -12
-17 -12 -28 -3 -11 10 -10 9 0 -6 12 -15 12 -22 0 -43 -11 -21 -11 -29 1 -47
11 -19 11 -20 -1 -10 -12 9 -14 -1 -17 -64 -3 -106 -21 -130 -23 -33 -3 74 -2
85 5 145 8 65 63 145 100 145 9 0 16 5 16 11 0 16 62 7 93 -14z m1127 9 c0 -6
-14 -11 -33 -10 -49 1 -57 3 -57 12 0 5 20 9 45 9 28 1 45 -4 45 -11z m-1691
-17 c19 -11 40 -27 48 -34 24 -25 64 -115 61 -138 -3 -18 -8 -13 -26 27 -12
26 -37 61 -54 77 -27 24 -42 29 -86 29 -51 0 -55 -2 -103 -52 -27 -28 -49 -60
-49 -71 0 -11 -3 -18 -6 -14 -10 9 -32 -17 -37 -44 -3 -13 -4 -2 -2 25 2 27 9
52 15 56 7 5 9 13 5 20 -5 9 -4 11 3 6 7 -4 12 -1 12 7 0 20 69 80 110 96 19
8 39 18 45 23 14 12 27 10 64 -13z m1237 -49 l-14 -45 -1 38 c-1 21 5 44 12
51 18 20 19 7 3 -44z m371 -17 c-2 -16 -4 -5 -4 22 0 28 2 40 4 28 2 -13 2
-35 0 -50z m-3029 28 c3 -8 -1 -12 -9 -9 -7 2 -15 10 -17 17 -3 8 1 12 9 9 7
-2 15 -10 17 -17z m377 9 c-3 -5 -13 -10 -21 -10 -8 0 -14 5 -14 10 0 6 9 10
21 10 11 0 17 -4 14 -10z m195 -23 c0 -9 -11 -12 -35 -9 -50 6 -54 22 -6 22
27 0 41 -4 41 -13z m2681 -17 c10 0 19 -4 19 -10 0 -10 -15 -14 -34 -11 -5 1
-12 -3 -16 -10 -6 -8 -9 -8 -14 0 -4 6 -2 11 3 11 6 0 12 12 12 28 1 16 3 20
6 10 2 -10 13 -18 24 -18z m-3071 -13 c1 -19 34 -54 58 -61 24 -8 28 -21 11
-32 -7 -4 -15 0 -20 8 -6 10 -18 14 -34 10 -36 -6 -60 25 -38 50 8 10 13 24 9
33 -3 9 -2 13 4 10 6 -3 10 -12 10 -18z m193 3 c5 -21 -26 -61 -47 -59 -6 0
-5 3 2 6 6 2 12 17 12 32 0 43 23 57 33 21z m717 -9 c0 -11 -4 -22 -9 -25 -4
-3 -11 -19 -14 -36 -4 -16 -15 -48 -26 -70 -15 -32 -16 -40 -5 -40 8 0 14 -4
14 -10 0 -5 -11 -10 -25 -10 -20 0 -25 -5 -25 -24 0 -13 -4 -26 -8 -28 -18 -6
-62 -100 -63 -131 l-1 -32 -9 30 c-5 17 -7 36 -4 43 7 20 -23 45 -45 39 -11
-3 -20 -1 -20 3 0 9 39 25 52 22 4 -1 -3 14 -15 33 -25 39 -46 45 -54 14 -6
-21 -10 -21 -102 -15 -53 3 -121 9 -151 12 -53 5 -54 4 -30 -11 l25 -16 -25 7
c-14 4 -26 11 -28 15 -6 14 -70 11 -75 -3 -3 -8 -6 -6 -6 5 -1 9 -4 17 -8 17
-5 0 -16 7 -26 15 -13 9 -16 18 -10 29 8 15 11 14 29 -2 18 -17 43 -20 210
-25 104 -2 174 -3 156 0 -18 2 -36 11 -39 19 -4 12 -8 12 -18 -3 -21 -28 -26
-11 -15 47 5 29 10 73 10 98 l0 45 68 -6 c37 -4 91 -7 120 -7 l52 0 0 -35 c0
-21 -5 -35 -12 -36 -7 0 -58 0 -113 1 l-100 1 22 -22 c20 -20 35 -23 136 -27
l114 -4 16 35 c9 19 17 46 17 59 0 24 16 48 32 48 4 0 8 -9 8 -19z m1711 9
c28 -16 24 -38 -6 -32 -17 3 -27 -1 -31 -12 -9 -23 -24 -20 -24 4 0 21 19 49
33 50 5 0 17 -5 28 -10z m-898 -37 c-7 -2 -21 -2 -30 0 -10 3 -4 5 12 5 17 0
24 -2 18 -5z m-203 -63 c0 -5 -8 -10 -17 -10 -15 0 -16 2 -3 10 19 12 20 12
20 0z m1350 -15 c0 -8 -7 -15 -15 -15 -8 0 -15 7 -15 15 0 8 7 15 15 15 8 0
15 -7 15 -15z m-1509 -90 c0 -42 -2 -80 -5 -83 -3 -3 -6 34 -6 83 0 49 3 86 6
83 3 -3 5 -41 5 -83z m377 54 c2 -13 -3 -15 -23 -12 -19 4 -25 1 -25 -13 0 -9
-3 -15 -6 -11 -4 3 -3 18 0 32 5 20 12 26 29 23 12 -2 23 -10 25 -19z m769
-11 c-3 -8 -6 -5 -6 6 -1 11 2 17 5 13 3 -3 4 -12 1 -19z m126 -8 c-3 -11 -9
-17 -15 -14 -5 3 -4 12 3 20 16 19 18 18 12 -6z m-3288 -10 c3 -5 -1 -10 -10
-10 -9 0 -13 5 -10 10 3 6 8 10 10 10 2 0 7 -4 10 -10z m506 -19 c4 7 11 10
16 6 4 -4 2 -17 -5 -27 -15 -25 -15 -33 0 -24 7 4 8 3 4 -4 -12 -19 -26 -14
-26 11 l0 22 -20 -25 c-11 -14 -20 -20 -20 -14 0 5 5 15 12 22 9 9 9 15 1 23
-6 6 -9 18 -6 26 4 11 9 9 21 -8 11 -16 16 -18 23 -8z m1323 13 c9 -8 16 -25
16 -36 0 -19 -1 -19 -19 3 -16 20 -21 21 -35 10 -14 -12 -16 -11 -16 6 0 36
27 44 54 17z m-1238 -15 c4 -6 -1 -9 -12 -8 -11 2 -25 0 -31 -4 -9 -6 -11 -3
-7 7 7 18 40 21 50 5z m2581 -31 c-3 -7 -5 -2 -5 12 0 14 2 19 5 13 2 -7 2
-19 0 -25z m336 10 c8 -30 4 -32 -37 -18 -19 6 -47 12 -62 13 -15 1 -29 8 -32
15 -3 9 14 12 61 12 58 0 65 -2 70 -22z m-1836 -50 c-2 -13 -4 -5 -4 17 -1 22
1 32 4 23 2 -10 2 -28 0 -40z m1520 0 c-3 -8 -6 -5 -6 6 -1 11 2 17 5 13 3 -3
4 -12 1 -19z m-2107 -7 c0 -6 -4 -12 -8 -15 -5 -3 -9 1 -9 9 0 8 4 15 9 15 4
0 8 -4 8 -9z m-603 -7 c-3 -3 -12 -4 -19 -1 -8 3 -5 6 6 6 11 1 17 -2 13 -5z
m686 -11 c-13 -2 -33 -2 -45 0 -13 2 -3 4 22 4 25 0 35 -2 23 -4z m142 -12
c-3 -6 -15 -8 -27 -6 -34 7 -34 15 1 15 18 0 30 -4 26 -9z m962 -13 c-3 -8 -6
-5 -6 6 -1 11 2 17 5 13 3 -3 4 -12 1 -19z m-1774 -8 c-3 -12 -8 -19 -11 -16
-5 6 5 36 12 36 2 0 2 -9 -1 -20z m577 10 c0 -5 -4 -10 -10 -10 -5 0 -10 5
-10 10 0 6 5 10 10 10 6 0 10 -4 10 -10z m-600 -15 c0 -8 -4 -15 -10 -15 -5 0
-7 7 -4 15 4 8 8 15 10 15 2 0 4 -7 4 -15z m391 -5 c6 0 7 5 4 10 -3 6 -1 10
4 10 6 0 11 -7 11 -15 0 -8 5 -15 10 -15 6 0 10 -4 10 -10 0 -14 -33 -13 -48
2 -7 7 -12 19 -11 28 0 10 2 11 6 3 2 -7 9 -13 14 -13z m1451 -34 c11 -10 16
-21 13 -25 -9 -9 -45 38 -44 58 0 13 2 13 6 1 3 -8 14 -23 25 -34z m-1341 7
c-12 -20 -14 -14 -5 12 4 9 9 14 11 11 3 -2 0 -13 -6 -23z m1419 7 c0 -5 -6
-10 -12 -13 -17 -5 -48 3 -48 13 0 10 30 18 48 12 6 -2 12 -8 12 -12z m70 10
c0 -5 -8 -10 -17 -10 -15 0 -16 2 -3 10 19 12 20 12 20 0z m-1330 -18 c24 -30
40 -61 40 -77 0 -17 11 -20 26 -5 7 7 9 -2 6 -25 -2 -19 -9 -35 -15 -35 -6 0
-7 3 -4 7 4 3 -2 12 -13 20 -12 9 -20 26 -20 44 0 19 -9 39 -25 55 -14 14 -25
27 -25 29 0 11 17 4 30 -13z m189 -5 c6 -8 14 -29 18 -48 6 -32 5 -33 -10 -17
-9 9 -17 28 -17 41 0 14 -6 28 -12 30 -8 4 -9 6 -2 6 6 1 17 -5 23 -12z m-59
-3 c0 -7 -27 -34 -35 -34 -3 0 -1 9 5 20 10 18 30 28 30 14z m630 -29 c-10
-12 -10 -15 1 -16 10 0 11 -2 2 -6 -7 -2 -13 -10 -13 -16 0 -7 -11 -23 -25
-35 -21 -20 -31 -23 -65 -17 -24 4 -46 15 -55 28 -16 23 -12 35 7 19 25 -20
108 -13 108 9 0 5 8 9 17 9 9 0 13 3 10 7 -7 6 10 33 20 33 3 0 0 -7 -7 -15z
m506 0 c-16 -16 -56 -20 -56 -6 0 5 12 12 28 14 15 2 31 5 35 6 5 0 2 -6 -7
-14z m-2176 -5 c0 -5 -2 -10 -4 -10 -3 0 -8 5 -11 10 -3 6 -1 10 4 10 6 0 11
-4 11 -10z m786 -44 c-8 -13 -16 -33 -18 -46 -3 -22 -4 -22 -19 -8 -20 20 -14
75 10 81 32 7 43 -3 27 -27z m-836 -12 c0 -8 -4 -12 -10 -9 -5 3 -10 10 -10
16 0 5 5 9 10 9 6 0 10 -7 10 -16z m1192 -52 c6 -7 8 -16 4 -19 -11 -12 -26
19 -24 52 1 27 1 28 5 5 3 -14 10 -31 15 -38z m-132 28 c0 -5 -4 -10 -10 -10
-5 0 -10 5 -10 10 0 6 5 10 10 10 6 0 10 -4 10 -10z m-770 -150 c0 -5 -7 -7
-15 -4 -8 4 -12 10 -9 15 6 11 24 2 24 -11z m666 -79 c-12 -19 -24 -12 -19 10
4 13 9 17 15 11 6 -6 7 -15 4 -21z m-3 -57 c-7 -18 -28 -2 -36 26 -5 18 -3 18
18 4 14 -9 21 -22 18 -30z m-1133 -3 c0 -6 -4 -13 -10 -16 -5 -3 -10 1 -10 9
0 9 5 16 10 16 6 0 10 -4 10 -9z m25 -31 c-3 -5 -14 -10 -23 -10 -15 0 -15 2
-2 10 20 13 33 13 25 0z m59 -126 c3 -8 2 -12 -4 -9 -6 3 -10 10 -10 16 0 14
7 11 14 -7z m-452 -9 c15 -3 44 -19 63 -37 l36 -31 27 26 c37 35 73 47 141 47
113 0 186 -76 185 -195 -1 -121 -77 -198 -193 -198 -61 0 -91 11 -133 51 l-27
25 -35 -31 c-76 -67 -183 -64 -258 6 l-27 25 -41 -36 c-46 -39 -91 -51 -147
-41 -106 19 -163 89 -163 198 0 66 12 102 48 139 41 43 75 57 142 57 66 0 90
-9 132 -48 l27 -25 35 31 c20 17 52 34 73 37 21 4 43 8 48 9 10 3 19 2 67 -9z
m454 -60 c13 -13 13 -15 1 -15 -8 0 -17 7 -21 15 -3 8 -3 15 0 15 3 0 12 -7
20 -15z m257 -364 c4 -18 -9 -41 -24 -41 -11 0 -19 29 -13 45 9 21 31 19 37
-4z m1407 -41 c0 -5 -2 -10 -4 -10 -3 0 -8 5 -11 10 -3 6 -1 10 4 10 6 0 11
-4 11 -10z m-1455 -10 c3 -5 1 -10 -4 -10 -6 0 -11 5 -11 10 0 6 2 10 4 10 3
0 8 -4 11 -10z m565 -10 c0 -5 -2 -10 -4 -10 -3 0 -8 5 -11 10 -3 6 -1 10 4
10 6 0 11 -4 11 -10z m-1470 -131 c0 -5 -4 -9 -8 -9 -5 0 -9 7 -9 15 0 8 4 12
9 9 4 -3 8 -9 8 -15z m-220 -18 c0 -6 -4 -13 -10 -16 -5 -3 -10 1 -10 9 0 9 5
16 10 16 6 0 10 -4 10 -9z m1481 -148 c13 -16 12 -17 -3 -4 -17 13 -22 21 -14
21 2 0 10 -8 17 -17z"/>
<path d="M2235 1791 c-3 -5 0 -13 6 -17 8 -4 9 -3 5 4 -4 7 -2 12 3 12 6 0 11
-4 11 -10 0 -6 30 -10 70 -10 68 0 101 15 40 18 -16 1 -36 2 -42 3 -7 0 -23
-2 -35 -5 -13 -2 -23 -1 -23 5 0 12 -27 12 -35 0z"/>
<path d="M185 955 c-22 -8 -41 -15 -42 -15 -1 0 -11 -15 -22 -34 -15 -24 -21
-50 -21 -92 0 -78 23 -116 84 -139 59 -23 107 -14 154 30 36 33 37 35 37 109
0 69 -2 77 -29 105 -26 27 -80 52 -111 51 -5 -1 -28 -7 -50 -15z m100 -88 c52
-74 -38 -179 -92 -109 -7 9 -13 35 -13 58 0 72 67 105 105 51z"/>
<path d="M230 815 c0 -22 4 -34 10 -30 6 3 10 17 10 30 0 13 -4 27 -10 30 -6
4 -10 -8 -10 -30z"/>
<path d="M516 960 c-67 -21 -100 -78 -94 -163 4 -53 8 -63 40 -93 47 -43 95
-52 154 -29 61 23 84 61 84 139 0 66 -23 115 -64 134 -37 17 -88 22 -120 12z
m78 -81 c21 -16 26 -29 26 -63 0 -74 -50 -107 -95 -62 -34 34 -34 88 0 121 29
30 35 31 69 4z"/>
<path d="M557 843 c-11 -10 -8 -63 3 -63 6 0 10 16 10 35 0 36 -2 40 -13 28z"/>
<path d="M836 960 c-60 -18 -96 -76 -96 -153 0 -117 134 -185 230 -117 85 61
71 218 -23 261 -46 20 -67 22 -111 9z m92 -88 c20 -25 15 -99 -8 -122 -24 -24
-38 -25 -67 -5 -44 31 -38 126 9 144 27 10 48 4 66 -17z"/>
<path d="M877 843 c-11 -10 -8 -51 3 -58 6 -4 10 8 10 29 0 37 -2 41 -13 29z"/>
<path d="M2590 3109 c0 -5 10 -9 22 -9 12 0 18 3 14 7 -10 11 -36 12 -36 2z"/>
<path d="M2510 3090 c0 -5 6 -10 14 -10 8 0 18 5 21 10 3 6 -3 10 -14 10 -12
0 -21 -4 -21 -10z"/>
<path d="M1939 3076 c-5 -5 -42 -7 -444 -26 -126 -6 -239 -12 -250 -15 -11 -2
-42 -4 -69 -4 -46 -1 -48 -2 -30 -15 14 -10 23 -11 32 -4 17 15 32 -1 38 -38
3 -16 8 -117 11 -224 3 -107 6 -197 8 -198 2 -2 12 -1 23 2 19 6 20 16 20 132
0 164 9 244 29 244 8 0 29 11 48 25 20 16 48 27 71 28 30 1 41 7 49 25 6 13
19 22 32 22 37 0 41 -35 42 -352 1 -246 1 -247 22 -243 12 3 23 6 25 8 4 4 5
431 1 486 -2 29 3 37 28 50 17 9 57 18 90 19 79 4 95 9 95 33 0 28 43 25 58
-3 9 -19 22 -236 34 -550 1 -33 5 -45 14 -41 19 7 23 29 19 98 -12 227 -5 436
16 443 5 2 9 10 9 18 0 13 25 17 103 17 9 0 17 4 17 9 0 5 5 6 10 3 6 -4 8
-15 5 -26 -4 -13 -2 -19 9 -19 9 0 16 -4 16 -10 0 -5 8 -10 19 -10 19 0 31 34
31 91 l0 29 -113 0 c-63 0 -116 -2 -118 -4z"/>
<path d="M2875 3040 c-3 -5 -17 -10 -31 -10 -13 0 -24 -4 -24 -9 0 -14 41 -4
59 14 8 8 12 15 9 15 -4 0 -10 -4 -13 -10z"/>
<path d="M2780 3010 c-23 -7 -23 -8 -3 -9 12 -1 25 4 28 9 3 6 5 10 3 9 -2 -1
-14 -5 -28 -9z"/>
<path d="M2696 2993 c-3 -3 -22 -7 -43 -10 -21 -3 -39 -9 -41 -14 -2 -5 -16
-9 -30 -9 -47 0 -72 -11 -72 -31 0 -11 7 -19 15 -19 8 0 15 4 15 8 0 4 20 14
45 21 25 7 43 16 41 20 -3 4 11 6 29 6 19 -1 32 2 29 7 -4 7 44 13 69 9 5 -1
6 3 3 8 -6 9 -52 12 -60 4z"/>
<path d="M4373 2853 c49 -4 52 -7 47 -63 -1 -14 -6 -26 -11 -28 -5 -2 -9 -15
-9 -28 0 -24 2 -25 68 -23 93 2 102 8 102 72 0 29 -5 58 -12 65 -8 8 -48 11
-122 10 -61 -1 -90 -3 -63 -5z"/>
<path d="M1160 2516 c0 -20 3 -36 8 -36 4 0 16 -14 27 -30 31 -47 40 -35 11
14 -14 25 -26 51 -26 60 0 8 -4 18 -10 21 -6 4 -10 -8 -10 -29z"/>
<path d="M4896 2537 c-11 -8 -17 -18 -15 -24 2 -5 14 1 27 14 25 25 17 31 -12
10z"/>
<path d="M1585 2060 c-3 -5 -1 -10 4 -10 6 0 11 5 11 10 0 6 -2 10 -4 10 -3 0
-8 -4 -11 -10z"/>
<path d="M1390 930 c0 -29 2 -30 45 -30 l45 0 0 -115 0 -115 40 0 40 0 0 115
0 115 45 0 c43 0 45 1 45 30 l0 30 -130 0 -130 0 0 -30z"/>
<path d="M1735 903 c-14 -134 -16 -142 -41 -162 -21 -16 -24 -27 -24 -80 l0
-61 34 0 c32 0 35 3 38 33 l3 32 78 3 77 3 0 -36 c0 -34 1 -35 40 -35 l40 0 0
65 c0 51 -3 65 -15 65 -12 0 -15 19 -15 115 l0 115 -104 0 -105 0 -6 -57z
m135 -88 l0 -85 -45 0 c-43 0 -45 1 -35 20 6 11 13 49 17 85 6 63 7 65 34 65
l29 0 0 -85z"/>
<path d="M2010 815 l0 -145 40 0 39 0 3 58 3 57 44 -57 c42 -57 45 -58 92 -58
27 0 49 2 49 6 0 3 -25 36 -56 75 l-55 70 42 52 c24 29 49 60 57 70 14 16 11
17 -39 17 l-54 0 -40 -56 -40 -56 -3 56 -3 56 -39 0 -40 0 0 -145z"/>
<path d="M2433 858 c30 -57 52 -109 50 -115 -3 -7 -16 -13 -29 -13 -21 0 -24
-5 -24 -35 0 -29 4 -35 20 -35 54 0 75 25 138 164 l61 136 -43 0 -43 0 -18
-55 c-11 -30 -22 -55 -25 -55 -3 0 -18 25 -33 55 -26 53 -28 55 -68 55 l-41 0
55 -102z"/>
<path d="M2670 815 l0 -145 40 0 39 0 3 113 3 112 63 3 c61 3 62 3 62 32 l0
30 -105 0 -105 0 0 -145z"/>
<path d="M2955 863 c-7 -83 -11 -100 -31 -120 -13 -13 -24 -35 -24 -48 0 -22
5 -25 34 -25 65 0 96 54 96 166 l0 64 30 0 30 0 0 -115 0 -115 40 0 40 0 0
145 0 145 -104 0 -104 0 -7 -97z"/>
<path d="M3210 815 l0 -145 105 0 105 0 0 30 0 30 -65 0 c-63 0 -65 1 -65 25
0 24 3 25 60 25 l60 0 0 35 0 35 -60 0 c-57 0 -60 1 -60 25 0 24 2 25 65 25
l65 0 0 30 0 30 -105 0 -105 0 0 -145z"/>
<path d="M3450 930 c0 -29 2 -30 45 -30 l45 0 0 -115 0 -115 40 0 40 0 0 115
0 115 45 0 c43 0 45 1 45 30 l0 30 -130 0 -130 0 0 -30z"/>
<path d="M3740 815 l0 -145 40 0 c40 0 40 0 40 39 0 38 0 38 45 45 63 8 84 22
101 63 20 46 10 86 -28 118 -26 22 -38 25 -114 25 l-84 0 0 -145z m131 75 c37
-20 17 -70 -28 -70 -20 0 -23 5 -23 40 0 43 13 50 51 30z"/>
<path d="M4011 828 c-24 -73 -46 -139 -48 -145 -4 -9 8 -13 40 -13 39 0 46 3
51 25 6 22 11 25 56 25 45 0 50 -3 56 -25 5 -22 12 -25 51 -25 32 0 44 4 40
13 -2 6 -24 72 -48 145 l-43 132 -56 0 -56 0 -43 -132z m117 -6 c9 -27 9 -34
-3 -39 -33 -12 -43 3 -32 46 12 45 19 43 35 -7z"/>
<path d="M4290 815 l0 -145 40 0 39 0 3 62 3 63 45 -62 45 -62 53 -1 53 0 -55
72 c-31 39 -56 75 -56 78 0 4 23 36 50 70 28 34 50 64 50 66 0 2 -22 4 -49 4
-47 0 -50 -1 -92 -57 l-44 -57 -3 57 -3 57 -39 0 -40 0 0 -145z"/>
<path d="M4580 930 c0 -29 2 -30 45 -30 l45 0 0 -115 0 -115 40 0 39 0 3 113
3 112 43 3 c39 3 42 5 42 33 l0 29 -130 0 -130 0 0 -30z"/>
<path d="M2282 886 c-42 -54 -51 -79 -32 -91 5 -3 36 -42 70 -87 l60 -81 0 71
c0 66 2 72 21 72 11 0 19 4 17 9 -8 24 -84 161 -88 161 -3 0 -24 -24 -48 -54z"/>
<path d="M1180 838 c-16 -22 -30 -46 -30 -52 0 -6 11 -28 25 -49 21 -31 32
-37 60 -37 41 0 42 4 11 51 l-24 35 24 39 c31 51 30 55 -6 55 -24 0 -36 -9
-60 -42z"/>
<path d="M1282 833 l-31 -47 30 -43 c26 -37 35 -43 64 -43 19 0 35 2 35 5 0 3
-11 23 -24 44 l-24 38 23 39 c32 51 31 54 -9 54 -29 0 -38 -6 -64 -47z"/>
<path d="M4850 872 c0 -4 11 -24 25 -45 l26 -37 -27 -46 -27 -45 39 3 c32 2
43 10 67 45 l30 41 -33 46 c-28 39 -39 46 -67 46 -18 0 -33 -3 -33 -8z"/>
<path d="M4960 875 c0 -3 11 -24 26 -46 l25 -40 -26 -45 -26 -44 38 0 c34 0
41 5 66 45 l28 44 -31 46 c-27 39 -36 45 -65 45 -19 0 -35 -2 -35 -5z"/>
<path d="M1406 812 c-13 -26 -13 -31 5 -58 l19 -29 0 58 c0 31 -2 57 -5 57 -2
0 -11 -13 -19 -28z"/>
<path d="M1836 605 c4 -8 8 -15 10 -15 2 0 4 7 4 15 0 8 -4 15 -10 15 -5 0 -7
-7 -4 -15z"/>
</g>
</svg>
