<?xml version="1.0" standalone="no"?>
<!DOCTYPE svg PUBLIC "-//W3C//DTD SVG 20010904//EN"
 "http://www.w3.org/TR/2001/REC-SVG-20010904/DTD/svg10.dtd">
<svg version="1.0" xmlns="http://www.w3.org/2000/svg"
 width="512.000000pt" height="512.000000pt" viewBox="0 0 512.000000 512.000000"
 preserveAspectRatio="xMidYMid meet">
<metadata>
Created by potrace 1.14, written by Peter Selinger 2001-2017
</metadata>
<g transform="translate(0.000000,512.000000) scale(0.100000,-0.100000)"
fill="#000000" stroke="none">
<path d="M780 3910 l0 -120 1778 2 1777 3 3 118 3 117 -1781 0 -1780 0 0 -120z"/>
<path d="M3457 3702 c-50 -51 -59 -83 -32 -118 8 -10 15 -22 15 -26 0 -3 -38
-9 -85 -13 l-85 -7 0 -40 0 -40 -41 36 c-60 51 -127 71 -229 70 -106 -1 -182
-28 -236 -84 l-37 -38 -46 38 c-71 60 -142 75 -311 65 -74 -5 -151 -8 -170 -6
-183 11 -336 10 -417 -1 -78 -12 -97 -12 -130 0 -51 20 -253 22 -313 4 -62
-19 -141 -101 -165 -171 -21 -63 -24 -229 -5 -288 30 -93 105 -147 230 -165
141 -21 284 21 334 97 24 37 21 103 -7 129 l-23 21 38 36 38 36 0 -92 c0 -148
31 -205 123 -225 76 -16 135 -4 176 37 27 27 32 38 27 61 -13 54 -19 282 -8
282 6 0 17 3 26 6 12 4 16 0 16 -15 0 -12 -4 -21 -10 -21 -6 0 -10 -38 -10
-95 0 -78 3 -95 15 -95 12 0 15 -16 15 -85 l0 -85 53 5 c28 3 99 10 155 15 57
6 107 12 111 15 5 2 6 27 3 54 -4 46 -3 50 19 54 13 3 50 10 82 16 32 5 71 17
87 24 27 14 29 14 40 -13 52 -127 186 -186 359 -162 79 11 172 52 202 88 10
12 15 10 30 -16 49 -80 197 -103 254 -40 23 26 33 25 37 -2 3 -23 4 -23 148
-19 80 2 153 7 163 13 15 8 17 30 17 246 0 208 -3 242 -19 277 -21 46 -44 69
-84 84 -24 9 -27 15 -20 34 15 42 9 106 -13 127 -31 32 -86 37 -129 11 -45
-26 -48 -26 -93 4 -20 14 -39 25 -42 25 -3 0 -27 -22 -53 -48z m142 -72 c8 0
34 9 58 21 50 24 73 20 73 -14 0 -41 -43 -70 -110 -75 -67 -5 -113 9 -135 41
-13 19 -13 23 6 43 20 21 20 21 57 3 20 -11 43 -19 51 -19z m-494 -141 c22 -6
53 -20 69 -32 l28 -20 -23 -18 c-23 -18 -23 -19 -3 -19 11 0 33 -14 50 -31 28
-29 29 -34 32 -140 4 -101 2 -113 -19 -143 -46 -67 -137 -106 -249 -106 -85 0
-133 14 -175 51 -44 39 -79 127 -65 165 6 14 10 58 10 97 0 54 5 80 20 104 23
38 86 82 132 93 50 12 148 11 193 -1z m680 -5 c55 -26 60 -53 57 -279 -2 -110
-4 -200 -5 -201 -1 -1 -44 -5 -94 -9 l-93 -8 0 102 c0 135 -8 134 -80 -7 -24
-46 -51 -87 -61 -92 -24 -13 -93 -13 -122 1 -43 20 -49 50 -54 277 l-4 212 80
0 c44 0 86 3 95 6 13 5 16 -1 16 -33 0 -68 13 -193 19 -193 4 0 31 50 61 111
30 61 62 115 70 120 24 13 79 10 115 -7z m-2170 -7 c41 -11 50 -17 53 -38 1
-13 8 -50 14 -81 9 -45 16 -58 30 -58 10 0 18 -5 18 -11 0 -16 -57 -69 -75
-69 -22 0 -135 58 -135 70 0 5 5 12 10 15 6 3 10 17 10 30 0 18 -7 26 -25 31
-36 9 -72 -18 -84 -63 -15 -52 -13 -173 2 -203 18 -37 81 -39 153 -6 45 21 59
23 79 14 33 -15 31 -39 -6 -76 -37 -36 -94 -52 -187 -52 -184 0 -262 84 -249
269 12 171 86 241 257 241 47 0 108 -6 135 -13z m503 7 c19 -6 22 -13 22 -55
0 -53 1 -52 -70 -53 l-45 -1 -3 -80 c-2 -44 2 -127 8 -185 12 -120 7 -130 -61
-130 -52 0 -85 14 -106 47 -15 23 -18 50 -18 188 -1 152 -2 160 -21 163 -13 2
-25 17 -35 47 l-16 44 41 6 c104 13 268 18 304 9z m439 -15 c28 -8 60 -26 85
-50 l40 -37 -7 -94 c-10 -133 -34 -152 -205 -167 l-75 -6 3 -57 4 -56 -59 -6
c-32 -4 -75 -9 -95 -11 l-38 -5 0 80 c0 62 -3 82 -15 86 -19 8 -20 50 -1 57
13 5 22 75 28 229 2 36 4 37 43 41 94 8 249 6 292 -4z"/>
<path d="M2974 3362 c-11 -10 -26 -33 -32 -51 -15 -42 -16 -150 -2 -187 22
-57 71 -69 117 -30 27 23 28 28 31 140 3 85 1 116 -8 116 -6 0 -18 7 -26 15
-20 20 -54 19 -80 -3z"/>
<path d="M2380 3346 c0 -12 3 -51 6 -85 7 -58 8 -61 34 -61 42 0 70 29 77 77
5 35 2 45 -20 67 -18 18 -37 26 -62 26 -30 0 -35 -3 -35 -24z"/>
<path d="M1142 2885 c-40 -7 -88 -22 -107 -34 l-35 -20 0 24 0 25 -107 0 c-60
0 -138 -3 -174 -6 l-67 -7 -4 -86 c-3 -47 -1 -87 4 -89 4 -2 8 -97 8 -212 l0
-208 63 -5 c34 -3 85 -9 113 -13 61 -8 119 9 135 37 10 19 12 19 44 -10 19
-17 51 -33 72 -36 21 -3 46 -8 56 -10 34 -7 92 17 124 51 l32 34 36 -24 c104
-71 345 -54 452 32 l37 29 15 -30 c28 -55 62 -71 149 -72 70 0 82 3 113 27 35
26 35 26 35 5 -1 -22 1 -22 149 -18 83 2 153 5 158 8 4 2 7 87 7 189 0 101 3
184 8 184 4 0 8 -60 8 -134 3 -214 35 -261 184 -261 47 0 84 6 100 15 14 8 30
13 35 11 19 -6 290 -29 297 -25 3 2 9 19 13 37 12 57 16 67 31 67 9 0 14 -11
14 -36 0 -51 43 -68 175 -65 126 3 180 3 278 -1 75 -3 80 -2 102 24 19 23 25
25 35 13 24 -28 97 -56 152 -56 64 -1 108 18 140 61 25 35 34 37 42 12 16 -49
151 -78 230 -48 76 29 80 39 67 163 -6 59 -11 131 -11 159 0 52 0 52 37 59 20
3 49 19 65 35 49 50 35 155 -25 187 -32 16 -207 20 -343 7 -61 -5 -73 -4 -81
11 -9 15 -18 15 -88 6 -44 -6 -103 -22 -132 -36 l-53 -24 0 25 c0 24 0 24
-102 24 -57 0 -133 -3 -170 -7 l-68 -6 0 -88 c0 -53 4 -89 10 -89 6 0 10 -17
9 -37 -1 -31 -8 -16 -40 81 -50 156 -56 162 -162 158 -165 -7 -183 -7 -219 1
-40 8 -36 13 -59 -73 l-11 -45 -12 34 c-21 64 -46 73 -202 72 -75 0 -173 -5
-217 -11 -67 -10 -86 -9 -118 4 -79 32 -201 15 -228 -31 -9 -15 -10 -13 -11
13 l0 30 -92 -3 c-51 -2 -121 -6 -155 -9 l-63 -6 0 -39 0 -39 -58 40 c-135 91
-325 91 -443 -2 -45 -35 -49 -35 -49 0 -1 77 -6 79 -128 57z m66 -88 c2 -19
-2 -29 -15 -33 -37 -12 -94 -38 -98 -45 -9 -14 24 -157 45 -201 12 -23 45 -66
72 -95 l51 -51 -30 -32 c-40 -43 -92 -49 -153 -18 -60 31 -103 111 -96 176 4
32 2 42 -8 42 -17 0 -32 -42 -46 -134 -6 -38 -13 -73 -16 -78 -7 -12 -74 -10
-133 4 l-51 11 0 204 c0 129 -4 203 -10 203 -5 0 -10 14 -10 30 l0 30 73 0
c39 0 90 3 111 7 l39 6 -6 -32 c-4 -17 -10 -68 -13 -112 -8 -95 6 -105 36 -26
35 91 79 133 175 163 58 19 79 14 83 -19z m449 18 c61 -18 86 -42 60 -56 -25
-15 -21 -26 13 -32 30 -7 80 -69 60 -75 -15 -5 -13 -189 3 -195 21 -7 -46 -79
-98 -106 -60 -30 -208 -41 -271 -21 -63 21 -95 47 -88 75 4 18 1 25 -15 30
-29 9 -41 35 -48 108 -13 138 52 240 177 278 43 13 154 10 207 -6z m653 5 c57
-16 61 -30 67 -264 l6 -213 -54 -6 c-30 -4 -71 -7 -91 -7 l-38 0 0 90 0 90
-66 0 -67 0 6 -85 c6 -79 5 -86 -15 -96 -12 -6 -43 -9 -71 -6 -98 9 -114 59
-102 324 l7 163 68 0 c38 0 75 3 84 6 14 5 16 -7 16 -95 l0 -101 71 0 72 0 -7
95 c-7 93 -7 95 16 104 31 13 56 13 98 1z m959 -8 c5 -9 28 -75 51 -147 23
-71 51 -145 62 -166 14 -28 18 -53 16 -105 l-3 -69 -55 -3 c-30 -1 -73 1 -94
5 -36 8 -40 12 -50 53 l-11 45 -62 3 -62 3 -11 -43 c-6 -24 -12 -47 -14 -53
-3 -10 -59 -9 -128 1 l-37 6 15 40 c17 50 17 48 -1 48 -8 0 -15 6 -14 13 1 25
14 42 32 42 15 0 29 26 62 115 25 63 49 123 56 134 11 19 -1 35 -27 36 -7 0
-9 11 -6 26 4 25 7 26 51 21 25 -3 64 -2 86 2 74 16 133 13 144 -7z m661 -15
c0 -31 -4 -35 -40 -47 -23 -8 -45 -20 -49 -28 -11 -20 12 -138 40 -201 13 -31
41 -69 70 -95 l48 -43 -19 -28 c-46 -70 -134 -73 -202 -8 -36 34 -67 118 -61
161 4 24 2 32 -10 32 -16 0 -47 -110 -47 -167 0 -40 -17 -53 -65 -52 -78 2
-87 8 -107 79 -13 49 -18 100 -18 208 0 88 -4 142 -10 142 -5 0 -10 14 -10 30
l0 30 68 0 c37 0 84 3 106 7 l38 6 -8 -74 c-11 -102 -11 -142 1 -146 6 -2 18
20 28 48 31 86 99 148 184 168 61 14 63 14 63 -22z m-1100 3 c25 -25 25 -52 1
-74 -15 -14 -29 -16 -67 -10 l-47 7 5 -174 c3 -96 9 -181 12 -190 17 -40 -122
-52 -164 -14 -31 28 -40 79 -40 234 l0 144 -39 -7 -38 -6 -7 41 c-4 23 -5 43
-3 45 7 7 175 21 270 23 85 1 100 -2 117 -19z m1568 5 c23 -24 23 -54 2 -75
-19 -19 -29 -21 -66 -15 -34 5 -45 3 -50 -9 -3 -8 -1 -93 5 -188 12 -198 12
-198 -66 -198 -58 0 -98 22 -112 61 -6 18 -11 99 -11 187 l0 154 -35 -4 c-38
-4 -45 4 -45 52 0 26 4 29 43 34 123 17 320 17 335 1z m-1468 -102 c0 -5 -12
-41 -27 -80 -25 -65 -31 -73 -55 -73 -23 0 -28 -5 -33 -35 -3 -19 -8 -51 -11
-71 -3 -20 -7 -34 -8 -33 -2 2 -6 54 -9 116 l-6 111 42 7 c27 5 50 17 67 36
25 28 40 36 40 22z m-1718 -87 c-4 -72 -6 -77 -18 -55 -11 20 -29 103 -26 119
1 4 44 19 48 16 1 -1 -1 -37 -4 -80z m2728 48 c0 -26 2 -26 45 -22 l45 6 0
-100 0 -99 -31 22 c-34 24 -72 97 -87 166 -10 44 -7 53 15 53 7 0 13 -11 13
-26z"/>
<path d="M1511 2701 c-57 -57 -54 -266 4 -293 58 -26 100 18 105 112 4 77 0
174 -7 167 -3 -4 -12 2 -20 13 -18 25 -57 26 -82 1z"/>
<path d="M3102 2578 c-12 -46 -22 -86 -22 -90 0 -5 20 -8 45 -8 40 0 45 2 44
23 -1 44 -25 151 -35 154 -5 2 -19 -34 -32 -79z"/>
<path d="M780 1710 l0 -120 1778 2 1777 3 3 118 3 117 -1781 0 -1780 0 0 -120z"/>
<path d="M850 1165 l0 -105 89 0 c82 0 91 2 105 22 l16 22 0 -22 c0 -21 4 -22
88 -22 100 0 122 12 122 67 0 43 -30 66 -95 71 -55 4 -55 5 -55 38 0 31 -3 34
-30 34 -24 0 -30 -4 -30 -22 l0 -22 -16 22 c-14 20 -23 22 -105 22 l-89 0 0
-105z m133 38 c-13 -2 -35 -2 -50 0 -16 2 -5 4 22 4 28 0 40 -2 28 -4z m0 -80
c-13 -2 -35 -2 -50 0 -16 2 -5 4 22 4 28 0 40 -2 28 -4z m210 0 c-13 -2 -35
-2 -50 0 -16 2 -5 4 22 4 28 0 40 -2 28 -4z"/>
<path d="M1290 1164 l0 -105 28 3 c23 3 27 8 30 41 l3 37 59 0 c51 0 61 -3 71
-22 20 -40 51 -58 100 -58 44 0 89 25 89 50 0 6 -31 10 -70 10 l-70 0 0 44 0
44 68 4 c37 2 82 2 100 0 l32 -3 0 -75 0 -74 30 0 30 0 0 74 0 74 35 4 35 4 0
-78 0 -78 30 0 c28 0 30 3 30 35 l0 35 48 0 c27 0 57 6 68 15 26 20 34 19 34
-6 0 -12 14 -34 31 -50 42 -39 104 -41 148 -3 l31 26 0 -26 c0 -25 3 -26 54
-26 l54 0 31 78 30 77 0 -77 1 -78 30 0 30 0 0 78 0 78 40 -4 40 -4 0 -74 0
-74 30 0 30 0 0 75 0 75 30 0 30 0 0 -75 0 -75 89 0 88 0 -5 -25 c-3 -20 0
-25 17 -25 16 0 27 12 41 46 25 58 25 66 -2 64 -13 -1 -57 -1 -98 0 -56 2 -66
4 -40 9 30 5 35 10 38 38 3 30 1 32 -35 36 -22 2 -7 4 35 5 l72 2 0 30 0 30
-253 0 -252 0 -27 -67 -27 -68 0 68 -1 67 -35 0 c-31 0 -35 -3 -35 -26 l0 -26
-31 26 c-44 38 -106 36 -148 -3 -17 -16 -31 -23 -31 -17 0 7 -8 20 -18 29 -16
15 -46 17 -204 17 -140 0 -187 -3 -191 -12 -4 -10 -7 -10 -18 0 -16 15 -93 16
-120 2 -10 -6 -26 -24 -34 -40 -15 -28 -19 -30 -75 -30 l-60 0 0 40 c0 38 -2
40 -30 40 l-30 0 0 -106z m703 39 c-13 -2 -35 -2 -50 0 -16 2 -5 4 22 4 28 0
40 -2 28 -4z m237 -38 l0 -45 -55 0 -55 0 0 45 0 45 55 0 55 0 0 -45z"/>
<path d="M3060 1166 l0 -106 30 0 30 0 1 73 0 72 28 -70 27 -70 51 -3 51 -3
30 78 31 78 0 -77 1 -78 30 0 30 0 0 105 0 105 -53 0 -52 0 -29 -75 c-16 -42
-32 -78 -36 -80 -4 -2 -21 30 -37 73 l-30 77 -52 3 -51 3 0 -105z"/>
<path d="M3410 1165 l0 -105 88 0 c96 0 106 4 121 40 9 24 10 24 10 -7 1 -30
4 -33 31 -33 l30 0 0 105 0 105 -30 0 -30 0 -1 -67 c0 -48 -3 -62 -9 -47 -10
25 -58 44 -111 44 -38 0 -39 1 -39 35 0 32 -2 35 -30 35 l-30 0 0 -105z m133
-42 c-13 -2 -35 -2 -50 0 -16 2 -5 4 22 4 28 0 40 -2 28 -4z"/>
<path d="M3792 1168 l3 -103 28 -3 c25 -3 27 -1 27 32 l0 36 55 0 55 0 0 -35
0 -35 63 0 c63 0 63 0 76 35 11 32 15 35 55 35 39 0 43 -3 55 -35 10 -29 17
-35 42 -35 35 0 36 -5 -15 121 l-34 84 -50 3 -50 3 -35 -88 -36 -88 -1 88 0
87 -35 0 c-33 0 -35 -2 -35 -35 l0 -35 -55 0 -55 0 0 35 c0 32 -2 35 -30 35
l-31 0 3 -102z m368 47 c0 -8 -4 -15 -10 -15 -5 0 -7 7 -4 15 4 8 8 15 10 15
2 0 4 -7 4 -15z"/>
<path d="M2070 973 c-40 -27 -49 -45 -50 -91 0 -37 6 -50 34 -78 40 -40 91
-46 136 -14 28 20 28 20 33 0 5 -18 14 -20 86 -20 69 0 84 3 102 21 17 17 20
29 16 60 -6 43 1 48 27 21 15 -17 15 -22 1 -56 -14 -32 -14 -37 -1 -42 29 -11
49 1 61 36 10 29 17 36 43 38 31 3 32 2 32 -36 l0 -40 113 -1 c103 -1 115 1
132 19 l19 21 8 -21 c7 -18 15 -21 55 -18 l48 3 25 68 c13 37 28 67 32 67 4 0
8 -31 8 -70 l0 -70 30 0 30 0 0 110 0 110 -48 0 -48 0 -37 -77 -36 -78 -1 78
0 77 -30 0 c-23 0 -30 -4 -30 -20 0 -20 0 -20 -20 0 -18 18 -34 19 -195 19
-159 0 -177 -1 -194 -18 -19 -19 -20 -19 -37 0 -14 16 -31 19 -106 19 -82 0
-88 -1 -88 -21 l0 -20 -26 20 c-33 26 -90 27 -124 4z m150 -93 l0 -50 -70 0
-70 0 0 50 0 50 70 0 70 0 0 -50z m150 40 c0 -5 -20 -10 -45 -10 -25 0 -45 5
-45 10 0 6 20 10 45 10 25 0 45 -4 45 -10z m220 0 c0 -5 -22 -10 -50 -10 -27
0 -50 5 -50 10 0 6 23 10 50 10 28 0 50 -4 50 -10z m210 0 c0 -6 -32 -10 -75
-10 -43 0 -75 4 -75 10 0 6 32 10 75 10 43 0 75 -4 75 -10z m-430 -80 c0 -5
-20 -10 -45 -10 -25 0 -45 5 -45 10 0 6 20 10 45 10 25 0 45 -4 45 -10z m430
0 c0 -6 -32 -10 -75 -10 -43 0 -75 4 -75 10 0 6 32 10 75 10 43 0 75 -4 75
-10z"/>
</g>
</svg>
